<?xml version="1.0" encoding="UTF-8"?>
<!DOCTYPE svg PUBLIC "-//W3C//DTD SVG 1.1//EN" "http://www.w3.org/Graphics/SVG/1.1/DTD/svg11.dtd">
<svg xmlns="http://www.w3.org/2000/svg" version="1.1" width="48px" height="48px" style="shape-rendering:geometricPrecision; text-rendering:geometricPrecision; image-rendering:optimizeQuality; fill-rule:evenodd; clip-rule:evenodd" xmlns:xlink="http://www.w3.org/1999/xlink">
<g><path style="opacity:0.09" fill="#f7e9ef" d="M 33.5,5.5 C 32.0413,5.56745 30.7079,5.23411 29.5,4.5C 28.391,4.44312 27.391,4.10978 26.5,3.5C 24.6208,2.65859 22.6208,2.32526 20.5,2.5C 20.1667,2.5 19.8333,2.5 19.5,2.5C 21.0106,0.558877 23.0106,0.0588773 25.5,1C 28.4481,2.23725 31.1148,3.73725 33.5,5.5 Z"/></g>
<g><path style="opacity:0.384" fill="#c7c1c1" d="M 19.5,2.5 C 19.8333,2.5 20.1667,2.5 20.5,2.5C 20.5,2.83333 20.5,3.16667 20.5,3.5C 18.0462,4.22713 15.7128,5.22713 13.5,6.5C 13.5,6.16667 13.5,5.83333 13.5,5.5C 15.1815,3.99249 17.1815,2.99249 19.5,2.5 Z"/></g>
<g><path style="opacity:1" fill="#6c202f" d="M 20.5,2.5 C 22.6208,2.32526 24.6208,2.65859 26.5,3.5C 25.4975,5.01094 24.8308,6.67761 24.5,8.5C 23.8333,8.5 23.5,8.83333 23.5,9.5C 22.791,10.404 21.791,10.7373 20.5,10.5C 20.5,10.1667 20.5,9.83333 20.5,9.5C 21.0431,9.44001 21.3764,9.10667 21.5,8.5C 20.3112,7.57131 18.9778,7.23798 17.5,7.5C 18.5,6.16667 19.5,4.83333 20.5,3.5C 20.5,3.16667 20.5,2.83333 20.5,2.5 Z"/></g>
<g><path style="opacity:0.165" fill="#e0ccd4" d="M 13.5,5.5 C 13.5,5.83333 13.5,6.16667 13.5,6.5C 12.8333,6.5 12.5,6.83333 12.5,7.5C 10.5887,8.07501 8.92203,9.07501 7.5,10.5C 7.5,10.1667 7.5,9.83333 7.5,9.5C 8.70789,6.95581 10.7079,5.62248 13.5,5.5 Z"/></g>
<g><path style="opacity:1" fill="#310b15" d="M 20.5,3.5 C 19.5,4.83333 18.5,6.16667 17.5,7.5C 17.1667,7.5 16.8333,7.5 16.5,7.5C 15.1667,7.5 13.8333,7.5 12.5,7.5C 12.5,6.83333 12.8333,6.5 13.5,6.5C 15.7128,5.22713 18.0462,4.22713 20.5,3.5 Z"/></g>
<g><path style="opacity:1" fill="#63182b" d="M 26.5,3.5 C 27.391,4.10978 28.391,4.44312 29.5,4.5C 28.493,6.52195 26.8263,7.85528 24.5,8.5C 24.8308,6.67761 25.4975,5.01094 26.5,3.5 Z"/></g>
<g><path style="opacity:0.922" fill="#f5bed4" d="M 29.5,4.5 C 30.7079,5.23411 32.0413,5.56745 33.5,5.5C 33.5,5.83333 33.5,6.16667 33.5,6.5C 31.6883,6.77128 30.0217,7.43795 28.5,8.5C 29.7701,9.28763 30.7701,10.2876 31.5,11.5C 30.1667,11.5 28.8333,11.5 27.5,11.5C 27.6309,10.6236 27.2975,9.95689 26.5,9.5C 25.4728,10.7914 24.4728,10.7914 23.5,9.5C 23.5,8.83333 23.8333,8.5 24.5,8.5C 26.8263,7.85528 28.493,6.52195 29.5,4.5 Z"/></g>
<g><path style="opacity:1" fill="#72001e" d="M 16.5,7.5 C 16.8333,7.5 17.1667,7.5 17.5,7.5C 18.9778,7.23798 20.3112,7.57131 21.5,8.5C 21.3764,9.10667 21.0431,9.44001 20.5,9.5C 18.8008,9.66018 17.1341,9.49351 15.5,9C 16.056,8.61742 16.3893,8.11742 16.5,7.5 Z"/></g>
<g><path style="opacity:1" fill="#d02a53" d="M 33.5,6.5 C 34.6935,7.27187 35.6935,8.27187 36.5,9.5C 35.325,9.28099 34.325,9.61432 33.5,10.5C 34.1272,11.4168 34.4606,12.4168 34.5,13.5C 33.5,12.8333 32.5,12.1667 31.5,11.5C 30.7701,10.2876 29.7701,9.28763 28.5,8.5C 30.0217,7.43795 31.6883,6.77128 33.5,6.5 Z"/></g>
<g><path style="opacity:0.016" fill="#fce2ea" d="M 33.5,5.5 C 37.2736,6.93825 39.6069,9.60491 40.5,13.5C 40.1667,13.5 39.8333,13.5 39.5,13.5C 39.2624,11.5956 38.2624,10.2623 36.5,9.5C 35.6935,8.27187 34.6935,7.27187 33.5,6.5C 33.5,6.16667 33.5,5.83333 33.5,5.5 Z"/></g>
<g><path style="opacity:0.021" fill="#f9ecf4" d="M 7.5,9.5 C 7.5,9.83333 7.5,10.1667 7.5,10.5C 7.16667,11.1667 6.83333,11.8333 6.5,12.5C 6.5,12.8333 6.5,13.1667 6.5,13.5C 5.59603,14.209 5.26269,15.209 5.5,16.5C 3.88455,13.5983 4.55122,11.265 7.5,9.5 Z"/></g>
<g><path style="opacity:0.988" fill="#350c19" d="M 12.5,7.5 C 12.0629,9.07442 11.0629,10.2411 9.5,11C 11.4727,11.4955 13.4727,11.6621 15.5,11.5C 14.8333,12.1667 14.1667,12.8333 13.5,13.5C 12.8333,13.5 12.1667,13.5 11.5,13.5C 9.7839,13.3713 8.11723,13.038 6.5,12.5C 6.83333,11.8333 7.16667,11.1667 7.5,10.5C 8.92203,9.07501 10.5887,8.07501 12.5,7.5 Z"/></g>
<g><path style="opacity:1" fill="#490418" d="M 12.5,7.5 C 13.8333,7.5 15.1667,7.5 16.5,7.5C 16.3893,8.11742 16.056,8.61742 15.5,9C 17.1341,9.49351 18.8008,9.66018 20.5,9.5C 20.5,9.83333 20.5,10.1667 20.5,10.5C 18.8828,11.038 17.2161,11.3713 15.5,11.5C 13.4727,11.6621 11.4727,11.4955 9.5,11C 11.0629,10.2411 12.0629,9.07442 12.5,7.5 Z"/></g>
<g><path style="opacity:1" fill="#d61a49" d="M 36.5,9.5 C 38.2624,10.2623 39.2624,11.5956 39.5,13.5C 39.6567,14.8734 39.49,16.2068 39,17.5C 37.9609,16.2899 36.7942,15.2899 35.5,14.5C 35.5,13.8333 35.1667,13.5 34.5,13.5C 34.4606,12.4168 34.1272,11.4168 33.5,10.5C 34.325,9.61432 35.325,9.28099 36.5,9.5 Z"/></g>
<g><path style="opacity:0.275" fill="#ebe6eb" d="M 20.5,10.5 C 19.7659,11.7079 19.4326,13.0413 19.5,14.5C 18.8333,14.5 18.5,14.8333 18.5,15.5C 17.8333,15.5 17.1667,15.5 16.5,15.5C 15.8333,15.5 15.1667,15.5 14.5,15.5C 17.2583,14.0335 16.925,13.3668 13.5,13.5C 14.1667,12.8333 14.8333,12.1667 15.5,11.5C 17.2161,11.3713 18.8828,11.038 20.5,10.5 Z"/></g>
<g><path style="opacity:0.124" fill="#f5edec" d="M 27.5,11.5 C 29.0018,14.0219 30.3351,14.0219 31.5,11.5C 32.5,12.1667 33.5,12.8333 34.5,13.5C 35.1667,13.5 35.5,13.8333 35.5,14.5C 35.5,14.8333 35.5,15.1667 35.5,15.5C 34.8333,15.5 34.5,15.8333 34.5,16.5C 33.5084,16.3284 32.8417,16.6618 32.5,17.5C 31.5326,16.1938 30.1993,15.5271 28.5,15.5C 28.1667,14.5 27.5,13.8333 26.5,13.5C 26.3284,12.5084 26.6618,11.8417 27.5,11.5 Z"/></g>
<g><path style="opacity:0.843" fill="#2f101a" d="M 6.5,12.5 C 8.11723,13.038 9.7839,13.3713 11.5,13.5C 9.58279,15.8507 7.91613,15.8507 6.5,13.5C 6.5,13.1667 6.5,12.8333 6.5,12.5 Z"/></g>
<g><path style="opacity:1" fill="#d1315f" d="M 26.5,13.5 C 27.5,13.8333 28.1667,14.5 28.5,15.5C 26.1667,15.5 23.8333,15.5 21.5,15.5C 20.5,15.5 19.5,15.5 18.5,15.5C 18.5,14.8333 18.8333,14.5 19.5,14.5C 21.717,13.6314 24.0504,13.298 26.5,13.5 Z"/></g>
<g><path style="opacity:0.016" fill="#eadde3" d="M 6.5,13.5 C 7.91613,15.8507 9.58279,15.8507 11.5,13.5C 12.1667,13.5 12.8333,13.5 13.5,13.5C 13.3284,14.4916 13.6618,15.1583 14.5,15.5C 15.1667,15.5 15.8333,15.5 16.5,15.5C 16.5,15.8333 16.5,16.1667 16.5,16.5C 14.597,16.7959 12.9303,17.4625 11.5,18.5C 10.0047,18.4148 9.00475,19.0815 8.5,20.5C 9.25987,22.3604 10.2599,24.027 11.5,25.5C 11.8333,26.1667 12.1667,26.8333 12.5,27.5C 11.8333,27.8333 11.1667,28.1667 10.5,28.5C 7.82797,25.3101 7.1613,21.8101 8.5,18C 7.26253,17.7679 6.26253,17.2679 5.5,16.5C 5.26269,15.209 5.59603,14.209 6.5,13.5 Z"/></g>
<g><path style="opacity:1" fill="#cd053b" d="M 18.5,15.5 C 19.5,15.5 20.5,15.5 21.5,15.5C 21.9175,16.2216 22.5842,16.7216 23.5,17C 22.2721,18.4902 22.2721,19.9902 23.5,21.5C 22.8333,21.5 22.1667,21.5 21.5,21.5C 21.6716,20.5084 21.3382,19.8417 20.5,19.5C 19.8333,18.1667 19.1667,16.8333 18.5,15.5 Z"/></g>
<g><path style="opacity:1" fill="#e0033f" d="M 21.5,15.5 C 23.8333,15.5 26.1667,15.5 28.5,15.5C 28.5,16.1667 28.5,16.8333 28.5,17.5C 27.6236,17.3691 26.9569,17.7025 26.5,18.5C 27.1152,20.1161 28.1152,21.4495 29.5,22.5C 29.0431,23.2975 28.3764,23.6309 27.5,23.5C 26.8333,23.5 26.1667,23.5 25.5,23.5C 24.5,23.1667 23.8333,22.5 23.5,21.5C 22.2721,19.9902 22.2721,18.4902 23.5,17C 22.5842,16.7216 21.9175,16.2216 21.5,15.5 Z"/></g>
<g><path style="opacity:1" fill="#78071e" d="M 16.5,16.5 C 16.5,16.1667 16.5,15.8333 16.5,15.5C 17.1667,15.5 17.8333,15.5 18.5,15.5C 19.1667,16.8333 19.8333,18.1667 20.5,19.5C 19.5,19.5 18.5,19.5 17.5,19.5C 17.1583,18.6618 16.4916,18.3284 15.5,18.5C 15.9175,17.7784 16.5842,17.2784 17.5,17C 17.2716,16.6012 16.9382,16.4346 16.5,16.5 Z"/></g>
<g><path style="opacity:0.104" fill="#f3ecef" d="M 34.5,16.5 C 34.8333,16.5 35.1667,16.5 35.5,16.5C 35.5,17.1667 35.8333,17.5 36.5,17.5C 37.3382,17.8417 37.6716,18.5084 37.5,19.5C 36.5946,20.9643 36.5946,22.2976 37.5,23.5C 37.5,25.1667 37.5,26.8333 37.5,28.5C 37.1667,28.5 36.8333,28.5 36.5,28.5C 36.7678,26.901 36.4345,25.5676 35.5,24.5C 35.0679,23.2905 34.4013,22.2905 33.5,21.5C 33.6716,20.5084 33.3382,19.8417 32.5,19.5C 32.5,18.8333 32.5,18.1667 32.5,17.5C 33.4916,17.6716 34.1583,17.3382 34.5,16.5 Z"/></g>
<g><path style="opacity:1" fill="#5e0c24" d="M 16.5,16.5 C 16.9382,16.4346 17.2716,16.6012 17.5,17C 16.5842,17.2784 15.9175,17.7784 15.5,18.5C 14.1148,19.9473 14.4482,20.9473 16.5,21.5C 16.5,22.1667 16.5,22.8333 16.5,23.5C 14.4265,22.7005 12.7598,21.3671 11.5,19.5C 11.5,19.1667 11.5,18.8333 11.5,18.5C 12.9303,17.4625 14.597,16.7959 16.5,16.5 Z"/></g>
<g><path style="opacity:1" fill="#7d0424" d="M 15.5,18.5 C 16.4916,18.3284 17.1583,18.6618 17.5,19.5C 17.6716,20.4916 17.3382,21.1583 16.5,21.5C 14.4482,20.9473 14.1148,19.9473 15.5,18.5 Z"/></g>
<g><path style="opacity:1" fill="#da244e" d="M 28.5,15.5 C 30.1993,15.5271 31.5326,16.1938 32.5,17.5C 32.5,18.1667 32.5,18.8333 32.5,19.5C 30.5168,19.8432 29.1834,19.1765 28.5,17.5C 28.5,16.8333 28.5,16.1667 28.5,15.5 Z"/></g>
<g><path style="opacity:0.063" fill="#fbdaeb" d="M 39.5,13.5 C 39.8333,13.5 40.1667,13.5 40.5,13.5C 43.0541,15.8296 42.8874,18.1629 40,20.5C 39.3292,19.7476 38.4959,19.4142 37.5,19.5C 37.6716,18.5084 37.3382,17.8417 36.5,17.5C 35.8333,17.5 35.5,17.1667 35.5,16.5C 35.5,16.1667 35.5,15.8333 35.5,15.5C 35.5,15.1667 35.5,14.8333 35.5,14.5C 36.7942,15.2899 37.9609,16.2899 39,17.5C 39.49,16.2068 39.6567,14.8734 39.5,13.5 Z"/></g>
<g><path style="opacity:1" fill="#e2063f" d="M 28.5,17.5 C 29.1834,19.1765 30.5168,19.8432 32.5,19.5C 33.3382,19.8417 33.6716,20.5084 33.5,21.5C 33.8432,23.4832 33.1765,24.8166 31.5,25.5C 30.1667,24.8333 28.8333,24.1667 27.5,23.5C 28.3764,23.6309 29.0431,23.2975 29.5,22.5C 28.1152,21.4495 27.1152,20.1161 26.5,18.5C 26.9569,17.7025 27.6236,17.3691 28.5,17.5 Z"/></g>
<g><path style="opacity:1" fill="#33131c" d="M 11.5,18.5 C 11.5,18.8333 11.5,19.1667 11.5,19.5C 11.2525,21.8583 11.9192,23.8583 13.5,25.5C 12.8333,25.5 12.1667,25.5 11.5,25.5C 10.2599,24.027 9.25987,22.3604 8.5,20.5C 9.00475,19.0815 10.0047,18.4148 11.5,18.5 Z"/></g>
<g><path style="opacity:1" fill="#6e0220" d="M 17.5,19.5 C 18.5,19.5 19.5,19.5 20.5,19.5C 21.3382,19.8417 21.6716,20.5084 21.5,21.5C 22.1408,22.4822 22.8075,23.4822 23.5,24.5C 22.3881,25.2652 21.7214,26.2652 21.5,27.5C 20.8333,27.5 20.1667,27.5 19.5,27.5C 19.5,26.1667 18.8333,25.5 17.5,25.5C 17.6716,24.5084 17.3382,23.8417 16.5,23.5C 16.5,22.8333 16.5,22.1667 16.5,21.5C 17.3382,21.1583 17.6716,20.4916 17.5,19.5 Z"/></g>
<g><path style="opacity:1" fill="#480218" d="M 11.5,19.5 C 12.7598,21.3671 14.4265,22.7005 16.5,23.5C 17.3382,23.8417 17.6716,24.5084 17.5,25.5C 16.1667,25.5 14.8333,25.5 13.5,25.5C 11.9192,23.8583 11.2525,21.8583 11.5,19.5 Z"/></g>
<g><path style="opacity:1" fill="#bb002a" d="M 25.5,23.5 C 26.1667,23.5 26.8333,23.5 27.5,23.5C 28.8333,24.1667 30.1667,24.8333 31.5,25.5C 30.7611,25.369 30.0944,25.5357 29.5,26C 30.4158,26.2784 31.0825,26.7784 31.5,27.5C 30.5,27.5 29.5,27.5 28.5,27.5C 28.1788,25.9519 27.1788,25.2852 25.5,25.5C 25.5,24.8333 25.5,24.1667 25.5,23.5 Z"/></g>
<g><path style="opacity:1" fill="#480015" d="M 13.5,25.5 C 14.8333,25.5 16.1667,25.5 17.5,25.5C 18.8333,25.5 19.5,26.1667 19.5,27.5C 18.1667,28.1667 16.8333,28.8333 15.5,29.5C 14.8333,28.1667 14.1667,26.8333 13.5,25.5 Z"/></g>
<g><path style="opacity:1" fill="#73011e" d="M 21.5,21.5 C 22.1667,21.5 22.8333,21.5 23.5,21.5C 23.8333,22.5 24.5,23.1667 25.5,23.5C 25.5,24.1667 25.5,24.8333 25.5,25.5C 24.3951,26.6005 23.0618,27.2671 21.5,27.5C 21.7214,26.2652 22.3881,25.2652 23.5,24.5C 22.8075,23.4822 22.1408,22.4822 21.5,21.5 Z"/></g>
<g><path style="opacity:1" fill="#d71446" d="M 33.5,21.5 C 34.4013,22.2905 35.0679,23.2905 35.5,24.5C 35.5,25.5 35.5,26.5 35.5,27.5C 34.5,27.5 33.5,27.5 32.5,27.5C 32.1667,27.5 31.8333,27.5 31.5,27.5C 31.0825,26.7784 30.4158,26.2784 29.5,26C 30.0944,25.5357 30.7611,25.369 31.5,25.5C 33.1765,24.8166 33.8432,23.4832 33.5,21.5 Z"/></g>
<g><path style="opacity:1" fill="#6a021d" d="M 25.5,25.5 C 27.1788,25.2852 28.1788,25.9519 28.5,27.5C 27.325,27.281 26.325,27.6143 25.5,28.5C 26.9935,29.1411 27.9935,30.1411 28.5,31.5C 26.8333,31.5 25.1667,31.5 23.5,31.5C 22.8333,30.1667 22.1667,28.8333 21.5,27.5C 23.0618,27.2671 24.3951,26.6005 25.5,25.5 Z"/></g>
<g><path style="opacity:1" fill="#6b1928" d="M 28.5,27.5 C 29.5,27.5 30.5,27.5 31.5,27.5C 31.8333,27.5 32.1667,27.5 32.5,27.5C 32.8333,28.1667 33.1667,28.8333 33.5,29.5C 31.9505,30.4408 30.2838,31.1075 28.5,31.5C 27.9935,30.1411 26.9935,29.1411 25.5,28.5C 26.325,27.6143 27.325,27.281 28.5,27.5 Z"/></g>
<g><path style="opacity:1" fill="#af3a59" d="M 35.5,24.5 C 36.4345,25.5676 36.7678,26.901 36.5,28.5C 35.609,29.1098 34.609,29.4431 33.5,29.5C 33.1667,28.8333 32.8333,28.1667 32.5,27.5C 33.5,27.5 34.5,27.5 35.5,27.5C 35.5,26.5 35.5,25.5 35.5,24.5 Z"/></g>
<g><path style="opacity:1" fill="#4d2932" d="M 11.5,25.5 C 12.1667,25.5 12.8333,25.5 13.5,25.5C 14.1667,26.8333 14.8333,28.1667 15.5,29.5C 15.5,30.1667 15.5,30.8333 15.5,31.5C 13.7376,30.7377 12.7376,29.4044 12.5,27.5C 12.1667,26.8333 11.8333,26.1667 11.5,25.5 Z"/></g>
<g><path style="opacity:1" fill="#400212" d="M 19.5,27.5 C 20.1667,27.5 20.8333,27.5 21.5,27.5C 22.1667,28.8333 22.8333,30.1667 23.5,31.5C 22.6618,31.8417 22.3284,32.5084 22.5,33.5C 22.1667,33.5 21.8333,33.5 21.5,33.5C 20.6618,33.1583 20.3284,32.4916 20.5,31.5C 19.7659,30.2921 19.4326,28.9587 19.5,27.5 Z"/></g>
<g><path style="opacity:0.02" fill="#e5f0ee" d="M 37.5,23.5 C 38.4067,25.6568 39.0733,27.9902 39.5,30.5C 38.8333,30.8333 38.1667,31.1667 37.5,31.5C 37.5,30.5 37.5,29.5 37.5,28.5C 37.5,26.8333 37.5,25.1667 37.5,23.5 Z"/></g>
<g><path style="opacity:1" fill="#40010f" d="M 19.5,27.5 C 19.4326,28.9587 19.7659,30.2921 20.5,31.5C 18.8333,31.5 17.1667,31.5 15.5,31.5C 15.5,30.8333 15.5,30.1667 15.5,29.5C 16.8333,28.8333 18.1667,28.1667 19.5,27.5 Z"/></g>
<g><path style="opacity:0.098" fill="#f1d5e2" d="M 10.5,28.5 C 9.44886,29.2223 8.78219,30.2223 8.5,31.5C 6.82351,32.1834 6.15684,33.5168 6.5,35.5C 6.16667,35.5 5.83333,35.5 5.5,35.5C 1.85947,29.8129 3.52614,27.4796 10.5,28.5 Z"/></g>
<g><path style="opacity:1" fill="#653342" d="M 23.5,31.5 C 25.1667,31.5 26.8333,31.5 28.5,31.5C 26.8984,33.0739 24.8984,33.7406 22.5,33.5C 22.3284,32.5084 22.6618,31.8417 23.5,31.5 Z"/></g>
<g><path style="opacity:1" fill="#c4385d" d="M 8.5,31.5 C 9.83333,31.5 10.5,32.1667 10.5,33.5C 8.82124,33.2852 7.82124,33.9519 7.5,35.5C 7.16667,35.5 6.83333,35.5 6.5,35.5C 6.15684,33.5168 6.82351,32.1834 8.5,31.5 Z"/></g>
<g><path style="opacity:1" fill="#4c353d" d="M 15.5,31.5 C 17.1667,31.5 18.8333,31.5 20.5,31.5C 20.3284,32.4916 20.6618,33.1583 21.5,33.5C 19.3159,34.1081 17.3159,33.4414 15.5,31.5 Z"/></g>
<g><path style="opacity:1" fill="#d53254" d="M 10.5,33.5 C 12.0269,33.427 13.0269,34.0937 13.5,35.5C 11.5168,35.1568 10.1834,35.8235 9.5,37.5C 8.5,37.1667 7.83333,36.5 7.5,35.5C 7.82124,33.9519 8.82124,33.2852 10.5,33.5 Z"/></g>
<g><path style="opacity:1" fill="#381922" d="M 35.5,32.5 C 34.8902,33.391 34.5569,34.391 34.5,35.5C 32.5,35.5 30.5,35.5 28.5,35.5C 30.5093,33.9348 32.8427,32.9348 35.5,32.5 Z"/></g>
<g><path style="opacity:1" fill="#480b1d" d="M 39.5,30.5 C 39.5,30.8333 39.5,31.1667 39.5,31.5C 39.8337,34.491 38.8337,36.8243 36.5,38.5C 35.8333,37.8333 35.1667,37.1667 34.5,36.5C 38.5,36.1667 38.5,35.8333 34.5,35.5C 34.5569,34.391 34.8902,33.391 35.5,32.5C 35.8417,31.6618 36.5084,31.3284 37.5,31.5C 38.1667,31.1667 38.8333,30.8333 39.5,30.5 Z"/></g>
<g><path style="opacity:0.029" fill="#f4e4ec" d="M 39.5,31.5 C 41.8475,33.0301 42.0141,35.0301 40,37.5C 38.1401,40.2044 35.6401,41.8711 32.5,42.5C 32.5,42.1667 32.5,41.8333 32.5,41.5C 33.795,40.5116 35.1283,39.5116 36.5,38.5C 38.8337,36.8243 39.8337,34.491 39.5,31.5 Z"/></g>
<g><path style="opacity:0.125" fill="#f9e6ee" d="M 5.5,35.5 C 5.83333,35.5 6.16667,35.5 6.5,35.5C 6.83333,35.5 7.16667,35.5 7.5,35.5C 7.83333,36.5 8.5,37.1667 9.5,37.5C 9.97306,38.9063 10.9731,39.573 12.5,39.5C 13.5,40.1667 14.5,40.8333 15.5,41.5C 14.5,41.5 13.5,41.5 12.5,41.5C 10.4048,40.588 8.4048,39.4213 6.5,38C 5.74756,37.3292 5.41423,36.4959 5.5,35.5 Z"/></g>
<g><path style="opacity:0.992" fill="#f2104b" d="M 13.5,35.5 C 13.8333,35.5 14.1667,35.5 14.5,35.5C 14.5394,36.5832 14.8728,37.5832 15.5,38.5C 14.675,39.3857 13.675,39.719 12.5,39.5C 10.9731,39.573 9.97306,38.9063 9.5,37.5C 10.1834,35.8235 11.5168,35.1568 13.5,35.5 Z"/></g>
<g><path style="opacity:1" fill="#3e0616" d="M 28.5,35.5 C 30.5,35.5 32.5,35.5 34.5,35.5C 38.5,35.8333 38.5,36.1667 34.5,36.5C 33.209,36.2627 32.209,36.596 31.5,37.5C 30.5,37.5 29.5,37.5 28.5,37.5C 28.5,36.8333 28.5,36.1667 28.5,35.5 Z"/></g>
<g><path style="opacity:1" fill="#3c1e22" d="M 28.5,35.5 C 28.5,36.1667 28.5,36.8333 28.5,37.5C 26.0842,38.9682 23.4175,39.6349 20.5,39.5C 20.5,39.1667 20.5,38.8333 20.5,38.5C 23.0067,37.1084 25.6733,36.1084 28.5,35.5 Z"/></g>
<g><path style="opacity:1" fill="#3f111e" d="M 34.5,36.5 C 35.1667,37.1667 35.8333,37.8333 36.5,38.5C 35.1283,39.5116 33.795,40.5116 32.5,41.5C 32.1667,41.5 31.8333,41.5 31.5,41.5C 31.5,40.1667 31.5,38.8333 31.5,37.5C 32.209,36.596 33.209,36.2627 34.5,36.5 Z"/></g>
<g><path style="opacity:1" fill="#cc8798" d="M 14.5,35.5 C 16.7454,36.9316 18.7454,37.9316 20.5,38.5C 20.5,38.8333 20.5,39.1667 20.5,39.5C 18.847,39.6596 17.5137,40.3263 16.5,41.5C 16.1667,41.5 15.8333,41.5 15.5,41.5C 14.5,40.8333 13.5,40.1667 12.5,39.5C 13.675,39.719 14.675,39.3857 15.5,38.5C 14.8728,37.5832 14.5394,36.5832 14.5,35.5 Z"/></g>
<g><path style="opacity:1" fill="#450110" d="M 28.5,37.5 C 29.5,37.5 30.5,37.5 31.5,37.5C 31.5,38.8333 31.5,40.1667 31.5,41.5C 30.8333,41.5 30.1667,41.5 29.5,41.5C 26.5,41.5 23.5,41.5 20.5,41.5C 19.1667,41.5 17.8333,41.5 16.5,41.5C 17.5137,40.3263 18.847,39.6596 20.5,39.5C 23.4175,39.6349 26.0842,38.9682 28.5,37.5 Z"/></g>
<g><path style="opacity:1" fill="#330711" d="M 20.5,41.5 C 23.5,41.5 26.5,41.5 29.5,41.5C 28.4863,42.6737 27.153,43.3404 25.5,43.5C 23.2188,43.9227 21.5521,43.256 20.5,41.5 Z"/></g>
<g><path style="opacity:0.065" fill="#eff6f4" d="M 12.5,41.5 C 13.5,41.5 14.5,41.5 15.5,41.5C 16.9649,42.7368 18.6316,43.7368 20.5,44.5C 20.5,44.8333 20.5,45.1667 20.5,45.5C 17.2459,45.2064 14.5792,43.873 12.5,41.5 Z"/></g>
<g><path style="opacity:0.988" fill="#28171b" d="M 15.5,41.5 C 15.8333,41.5 16.1667,41.5 16.5,41.5C 17.8333,41.5 19.1667,41.5 20.5,41.5C 21.5521,43.256 23.2188,43.9227 25.5,43.5C 25.5,43.8333 25.5,44.1667 25.5,44.5C 23.8333,44.5 22.1667,44.5 20.5,44.5C 18.6316,43.7368 16.9649,42.7368 15.5,41.5 Z"/></g>
<g><path style="opacity:0.02" fill="#eae5e6" d="M 29.5,41.5 C 30.1667,41.5 30.8333,41.5 31.5,41.5C 31.8333,41.5 32.1667,41.5 32.5,41.5C 32.5,41.8333 32.5,42.1667 32.5,42.5C 30.5,43.5 28.5,44.5 26.5,45.5C 25.8333,45.5 25.5,45.1667 25.5,44.5C 25.5,44.1667 25.5,43.8333 25.5,43.5C 27.153,43.3404 28.4863,42.6737 29.5,41.5 Z"/></g>
<g><path style="opacity:0.004" fill="#eee8eb" d="M 20.5,44.5 C 22.1667,44.5 23.8333,44.5 25.5,44.5C 25.5,45.1667 25.8333,45.5 26.5,45.5C 24.5,46.8333 22.5,46.8333 20.5,45.5C 20.5,45.1667 20.5,44.8333 20.5,44.5 Z"/></g>
</svg>
