<?xml version="1.0" standalone="no"?><!DOCTYPE svg PUBLIC "-//W3C//DTD SVG 1.1//EN" "http://www.w3.org/Graphics/SVG/1.1/DTD/svg11.dtd"><svg t="1724306517632" class="icon" viewBox="0 0 1024 1024" version="1.1" xmlns="http://www.w3.org/2000/svg" p-id="26485" xmlns:xlink="http://www.w3.org/1999/xlink" width="256" height="256"><path d="M180 584.88H108v-72h72v72z m73.86-145.86H180v73.86h73.86v-73.86z m73.86-73.86h-73.86v73.86h73.86v-73.86z m73.858-73.86h-73.86v73.86h73.86v-73.86z m72-72.514h-72v72.516h72v-72.516z m74.268-145.656H473.58v145.656h74.268V73.13zM622.386 0h-74.54v72h74.54V0z m0 144h72.088V73.428h-72.088V144z m72.088 74.786h72.962V144.9h-72.962v73.888z m72.962 73.23h74.286v-73.23h-74.286v73.23z m74.286 71.286h72.6v-71.286h-72.6v71.286z m147.086 0.898H914.32v147.58h74.488V364.2z m-440.96-145.414v73.446h73.28v-73.446h-73.28z m73.28 73.446v73.86h73.346v-73.86h-73.348z m146.308 145.86v-72h-72.962v72h72.962z m-145.574 293.326h72.612v-72H621.86v72zM402.36 951.634h-73.886v71.674h147.986v-71.674h71.708v-146.812h73.694V731.42h-73.694v73.404h-73.622l-0.216 73.406h-71.636v73.406m-147.34 0h73.12v-73.406h-73.12v73.406zM182.42 804.822v73.406h72.934v-73.406H182.42zM108 731.42v73.404h74.42V731.42H108z m0-146.54H36v146.54h72v-146.54z m733.72-146.04h-74.284v146.99h-72.962v72h72.962v-71.738h146.884v-74h-72.6V438.84z" p-id="26486"></path></svg>