<?xml version="1.0" encoding="UTF-8"?>
<!DOCTYPE svg PUBLIC "-//W3C//DTD SVG 1.1//EN" "http://www.w3.org/Graphics/SVG/1.1/DTD/svg11.dtd">
<svg xmlns="http://www.w3.org/2000/svg" version="1.1" width="32px" height="32px" style="shape-rendering:geometricPrecision; text-rendering:geometricPrecision; image-rendering:optimizeQuality; fill-rule:evenodd; clip-rule:evenodd" xmlns:xlink="http://www.w3.org/1999/xlink">
<g><path style="opacity:0.984" fill="#768114" d="M 5.5,12.5 C 5.15829,13.3382 4.49162,13.6716 3.5,13.5C 3.44001,12.9569 3.10667,12.6236 2.5,12.5C 1.22671,13.2565 1.22671,13.9232 2.5,14.5C 3.76178,14.9066 5.09512,15.24 6.5,15.5C 7.38568,16.325 7.71901,17.325 7.5,18.5C 5.7839,18.3713 4.11723,18.038 2.5,17.5C 1.39105,17.4431 0.391047,17.1098 -0.5,16.5C -0.5,14.8333 -0.5,13.1667 -0.5,11.5C 1.90073,9.93784 3.90073,10.2712 5.5,12.5 Z"/></g>
<g><path style="opacity:1" fill="#a33c25" d="M 5.5,12.5 C 14.7604,12.0844 23.4271,14.0844 31.5,18.5C 31.5,19.1667 31.5,19.8333 31.5,20.5C 23.66,19.4156 15.8267,19.4156 8,20.5C 5.34537,20.876 3.51204,19.876 2.5,17.5C 4.11723,18.038 5.7839,18.3713 7.5,18.5C 7.71901,17.325 7.38568,16.325 6.5,15.5C 5.09512,15.24 3.76178,14.9066 2.5,14.5C 3.16667,14.5 3.5,14.1667 3.5,13.5C 4.49162,13.6716 5.15829,13.3382 5.5,12.5 Z"/></g>
</svg>
