<?xml version="1.0" encoding="UTF-8"?>
<!DOCTYPE svg PUBLIC "-//W3C//DTD SVG 1.1//EN" "http://www.w3.org/Graphics/SVG/1.1/DTD/svg11.dtd">
<svg xmlns="http://www.w3.org/2000/svg" version="1.1" width="64px" height="64px" style="shape-rendering:geometricPrecision; text-rendering:geometricPrecision; image-rendering:optimizeQuality; fill-rule:evenodd; clip-rule:evenodd" xmlns:xlink="http://www.w3.org/1999/xlink">
<g><path style="opacity:0.889" fill="#b38ff7" d="M 23.5,-0.5 C 28.8333,-0.5 34.1667,-0.5 39.5,-0.5C 47.4952,1.98231 53.9952,6.64898 59,13.5C 60.62,16.8932 62.12,20.2265 63.5,23.5C 63.5,28.8333 63.5,34.1667 63.5,39.5C 61.0177,47.4952 56.351,53.9952 49.5,59C 46.1068,60.62 42.7735,62.12 39.5,63.5C 34.1667,63.5 28.8333,63.5 23.5,63.5C 15.5048,61.0177 9.00476,56.351 4,49.5C 2.37997,46.1068 0.879972,42.7735 -0.5,39.5C -0.5,34.1667 -0.5,28.8333 -0.5,23.5C 1.98231,15.5048 6.64898,9.00476 13.5,4C 16.8932,2.37997 20.2265,0.879972 23.5,-0.5 Z"/></g>
<g><path style="opacity:1" fill="#0f0c14" d="M 24.5,2.5 C 42.1868,0.585204 54.0201,7.91854 60,24.5C 61.5,49.6667 49.6667,61.5 24.5,60C 7.78077,54.0762 0.614103,42.2428 3,24.5C 6.68463,13.6498 13.8513,6.31647 24.5,2.5 Z"/></g>
<g><path style="opacity:1" fill="#7c62ae" d="M 24.5,5.5 C 49.6332,4.7891 60.1332,16.7891 56,41.5C 48.6016,55.7759 37.1016,60.6093 21.5,56C 7.22405,48.6016 2.39072,37.1016 7,21.5C 10.7084,13.7472 16.5417,8.41391 24.5,5.5 Z"/></g>
<g><path style="opacity:1" fill="#191521" d="M 44.5,25.5 C 42.264,26.3891 40.264,27.7224 38.5,29.5C 38.1667,29.3333 37.8333,29.1667 37.5,29C 43.0365,25.0518 42.7032,23.8851 36.5,25.5C 35.8166,23.8235 34.4832,23.1568 32.5,23.5C 32.8282,28.8746 32.4948,34.2079 31.5,39.5C 30.0089,38.6519 29.3422,37.3186 29.5,35.5C 30.2739,31.5351 30.6073,27.5351 30.5,23.5C 29.0222,23.238 27.6888,23.5713 26.5,24.5C 29.0943,30.3313 28.761,30.6647 25.5,25.5C 24.3112,24.5713 22.9778,24.238 21.5,24.5C 24.1709,22.8819 27.1709,22.2153 30.5,22.5C 31.1667,14.5 31.8333,14.5 32.5,22.5C 36.2198,22.5642 39.8865,23.0642 43.5,24C 44.056,24.3826 44.3893,24.8826 44.5,25.5 Z"/></g>
<g><path style="opacity:1" fill="#191521" d="M 18.5,25.5 C 19.209,24.596 20.209,24.2627 21.5,24.5C 22.6253,26.1288 23.9586,27.6288 25.5,29C 25.1667,29.1667 24.8333,29.3333 24.5,29.5C 22.736,27.7224 20.736,26.3891 18.5,25.5 Z"/></g>
<g><path style="opacity:1" fill="#b18df6" d="M 36.5,25.5 C 42.7032,23.8851 43.0365,25.0518 37.5,29C 37.8333,29.1667 38.1667,29.3333 38.5,29.5C 40.264,27.7224 42.264,26.3891 44.5,25.5C 45.4709,26.9621 45.1376,28.2954 43.5,29.5C 45.5405,28.4808 47.5405,28.4808 49.5,29.5C 47.3451,30.4104 45.3451,31.5771 43.5,33C 44.0465,33.9246 44.7132,34.7579 45.5,35.5C 48.1655,34.2622 50.8322,34.2622 53.5,35.5C 50.8929,36.3184 48.2263,36.8184 45.5,37C 48.2263,37.1816 50.8929,37.6816 53.5,38.5C 52.8333,38.8333 52.1667,39.1667 51.5,39.5C 49.1994,38.6042 46.8661,38.4375 44.5,39C 47.0444,40.092 49.7111,40.7586 52.5,41C 49.6593,42.7651 46.826,42.5984 44,40.5C 43.4092,41.4835 43.7425,42.1501 45,42.5C 46.5,43 48,43.5 49.5,44C 45.5792,47.6965 40.9125,49.5298 35.5,49.5C 32.5,49.5 29.5,49.5 26.5,49.5C 22.2895,49.2631 18.4562,47.9298 15,45.5C 14.3123,44.6683 14.479,44.0016 15.5,43.5C 17.3334,42.9479 19.0001,42.1145 20.5,41C 18.1693,41.1571 15.8359,41.6571 13.5,42.5C 12.5,42.5 11.5,42.5 10.5,42.5C 12.6586,40.6598 15.3253,39.4932 18.5,39C 6.68245,39.1168 6.68245,38.4502 18.5,37C 15.4465,36.8214 12.4465,36.3214 9.5,35.5C 11.396,34.5344 13.396,34.2011 15.5,34.5C 15.7352,35.0967 16.2352,35.4301 17,35.5C 18.1712,34.6604 19.3379,33.8271 20.5,33C 17.686,31.946 15.3527,30.446 13.5,28.5C 15.5648,28.5172 17.5648,28.8505 19.5,29.5C 17.8624,28.2954 17.5291,26.9621 18.5,25.5C 20.736,26.3891 22.736,27.7224 24.5,29.5C 24.8333,29.3333 25.1667,29.1667 25.5,29C 23.9586,27.6288 22.6253,26.1288 21.5,24.5C 22.9778,24.238 24.3112,24.5713 25.5,25.5C 28.761,30.6647 29.0943,30.3313 26.5,24.5C 27.6888,23.5713 29.0222,23.238 30.5,23.5C 30.6073,27.5351 30.2739,31.5351 29.5,35.5C 29.3422,37.3186 30.0089,38.6519 31.5,39.5C 32.4948,34.2079 32.8282,28.8746 32.5,23.5C 34.4832,23.1568 35.8166,23.8235 36.5,25.5 Z"/></g>
<g><path style="opacity:1" fill="#261e33" d="M 18.5,25.5 C 17.5291,26.9621 17.8624,28.2954 19.5,29.5C 17.5648,28.8505 15.5648,28.5172 13.5,28.5C 14.6594,26.7497 16.326,25.7497 18.5,25.5 Z"/></g>
<g><path style="opacity:1" fill="#342a48" d="M 36.5,25.5 C 36.6882,27.1033 36.1882,28.4366 35,29.5C 34.6522,27.8602 35.1522,26.5268 36.5,25.5 Z"/></g>
<g><path style="opacity:1" fill="#2b223a" d="M 19.5,29.5 C 20.7562,29.4614 21.7562,29.9614 22.5,31C 21.0024,31.5847 20.0024,31.0847 19.5,29.5 Z"/></g>
<g><path style="opacity:1" fill="#3a2f4f" d="M 43.5,29.5 C 42.9976,31.0847 41.9976,31.5847 40.5,31C 41.2438,29.9614 42.2438,29.4614 43.5,29.5 Z"/></g>
<g><path style="opacity:1" fill="#a281e2" d="M 10.5,31.5 C 12.9892,31.2978 15.3225,31.7978 17.5,33C 17.2716,33.3988 16.9382,33.5654 16.5,33.5C 13.9899,33.9465 11.9899,33.2798 10.5,31.5 Z"/></g>
<g><path style="opacity:1" fill="#392e4f" d="M 13.5,28.5 C 15.3527,30.446 17.686,31.946 20.5,33C 19.3379,33.8271 18.1712,34.6604 17,35.5C 16.2352,35.4301 15.7352,35.0967 15.5,34.5C 16.1667,34.5 16.5,34.1667 16.5,33.5C 16.9382,33.5654 17.2716,33.3988 17.5,33C 15.3225,31.7978 12.9892,31.2978 10.5,31.5C 11.1667,30.1667 12.1667,29.1667 13.5,28.5 Z"/></g>
<g><path style="opacity:1" fill="#18141f" d="M 10.5,31.5 C 11.9899,33.2798 13.9899,33.9465 16.5,33.5C 16.5,34.1667 16.1667,34.5 15.5,34.5C 13.396,34.2011 11.396,34.5344 9.5,35.5C 12.4465,36.3214 15.4465,36.8214 18.5,37C 6.68245,38.4502 6.68245,39.1168 18.5,39C 15.3253,39.4932 12.6586,40.6598 10.5,42.5C 7.83333,38.8333 7.83333,35.1667 10.5,31.5 Z"/></g>
<g><path style="opacity:1" fill="#251e32" d="M 44.5,25.5 C 48.3607,26.0789 51.0274,28.0789 52.5,31.5C 54.958,34.9394 55.1246,38.606 53,42.5C 46.0168,49.7031 37.5168,52.5364 27.5,51C 30.3647,50.8171 33.0314,50.3171 35.5,49.5C 40.9125,49.5298 45.5792,47.6965 49.5,44C 48,43.5 46.5,43 45,42.5C 43.7425,42.1501 43.4092,41.4835 44,40.5C 46.826,42.5984 49.6593,42.7651 52.5,41C 49.7111,40.7586 47.0444,40.092 44.5,39C 46.8661,38.4375 49.1994,38.6042 51.5,39.5C 52.1667,39.1667 52.8333,38.8333 53.5,38.5C 50.8929,37.6816 48.2263,37.1816 45.5,37C 48.2263,36.8184 50.8929,36.3184 53.5,35.5C 50.8322,34.2622 48.1655,34.2622 45.5,35.5C 44.7132,34.7579 44.0465,33.9246 43.5,33C 45.3451,31.5771 47.3451,30.4104 49.5,29.5C 47.5405,28.4808 45.5405,28.4808 43.5,29.5C 45.1376,28.2954 45.4709,26.9621 44.5,25.5 Z"/></g>
<g><path style="opacity:1" fill="#ad8af1" d="M 52.5,31.5 C 50.5449,33.3258 48.2116,33.8258 45.5,33C 47.6775,31.7978 50.0108,31.2978 52.5,31.5 Z"/></g>
<g><path style="opacity:1" fill="#2c233c" d="M 26.5,49.5 C 20.6724,50.6078 15.6724,48.7745 11.5,44C 12.4158,43.7216 13.0825,43.2216 13.5,42.5C 15.8359,41.6571 18.1693,41.1571 20.5,41C 19.0001,42.1145 17.3334,42.9479 15.5,43.5C 14.479,44.0016 14.3123,44.6683 15,45.5C 18.4562,47.9298 22.2895,49.2631 26.5,49.5 Z"/></g>
</svg>
