<?xml version="1.0" standalone="no"?><!DOCTYPE svg PUBLIC "-//W3C//DTD SVG 1.1//EN" "http://www.w3.org/Graphics/SVG/1.1/DTD/svg11.dtd"><svg t="1724299521985" class="icon" viewBox="0 0 1024 1024" version="1.1" xmlns="http://www.w3.org/2000/svg" p-id="6208" xmlns:xlink="http://www.w3.org/1999/xlink" width="256" height="256"><path d="M445.005888 51.952596c-40.486036-6.887649-73.610975 22.929325-73.610975 63.989675v424.387033c-23.964736-8.791736-49.742987-13.843227-76.741912-13.843227-123.312793 0-223.280449 99.971773-223.280449 223.288683 0 123.308676 99.967657 223.263981 223.280449 223.263982 70.278308 0 132.853813-32.565034 173.747427-83.331083l-102.219626-102.231976c-31.11587-31.107636-24.100596-59.491913-19.641944-70.27625 4.458651-10.771986 19.584307-35.817421 63.571805-35.81742h37.221299v-117.096206c0-43.49964 30.088692-79.996357 70.535617-90.047878 0.065871-91.340598 0.065871-168.399515 0.065871-168.399515 288.48874 0 271.150226 172.858166 237.393337 272.121825-13.215393 38.872194-5.354087 45.389318 22.42294 15.138007C1129.791746 209.68099 639.683863 85.061067 445.005888 51.952596z" p-id="6209"></path><path d="M645.202627 511.802993h-104.969744c-8.050686 0-15.59087 1.955549-22.414707 5.193526-17.735799 8.419152-30.084575 26.344331-30.084575 47.289288v157.493728h-77.62088c-28.987409 0-35.875058 16.613931-15.368555 37.1122l96.527949 96.538241 64.327264 64.319031" p-id="6210"></path></svg>