<?xml version="1.0" encoding="UTF-8"?>
<!DOCTYPE svg PUBLIC "-//W3C//DTD SVG 1.1//EN" "http://www.w3.org/Graphics/SVG/1.1/DTD/svg11.dtd">
<svg xmlns="http://www.w3.org/2000/svg" version="1.1" width="32px" height="32px" style="shape-rendering:geometricPrecision; text-rendering:geometricPrecision; image-rendering:optimizeQuality; fill-rule:evenodd; clip-rule:evenodd" xmlns:xlink="http://www.w3.org/1999/xlink">
<g><path style="opacity:0.963" fill="#fcfcfc" d="M 2.5,-0.5 C 11.1667,-0.5 19.8333,-0.5 28.5,-0.5C 29.5,0.5 30.5,1.5 31.5,2.5C 31.5,11.1667 31.5,19.8333 31.5,28.5C 30.5987,29.2905 29.9321,30.2905 29.5,31.5C 20.5,31.5 11.5,31.5 2.5,31.5C 1.5,30.5 0.5,29.5 -0.5,28.5C -0.5,19.8333 -0.5,11.1667 -0.5,2.5C 0.5,1.5 1.5,0.5 2.5,-0.5 Z"/></g>
<g><path style="opacity:1" fill="#828282" d="M 5.5,5.5 C 4.83333,6.83333 4.16667,8.16667 3.5,9.5C 3.27391,12.2492 3.60724,14.9159 4.5,17.5C 3.5,18.8333 2.5,18.8333 1.5,17.5C 2.80609,13.6354 2.80609,9.80211 1.5,6C 2.79323,5.50999 4.12656,5.34332 5.5,5.5 Z"/></g>
<g><path style="opacity:1" fill="#bdbdbd" d="M 16.5,6.5 C 16.5,7.5 16.5,8.5 16.5,9.5C 15.5489,10.9187 15.2155,12.5853 15.5,14.5C 14.8333,14.5 14.1667,14.5 13.5,14.5C 13.5,11.8333 13.5,9.16667 13.5,6.5C 14.5,6.5 15.5,6.5 16.5,6.5 Z"/></g>
<g><path style="opacity:1" fill="#969696" d="M 16.5,6.5 C 15.5,6.5 14.5,6.5 13.5,6.5C 13.5,9.16667 13.5,11.8333 13.5,14.5C 13.5,15.1667 13.1667,15.5 12.5,15.5C 12.6602,13.8008 12.4935,12.1341 12,10.5C 10.8289,12.8422 9.66222,15.1756 8.5,17.5C 6.88882,16.6798 6.22216,15.3464 6.5,13.5C 7.83126,16.0489 8.83126,15.7155 9.5,12.5C 10.5941,10.3879 11.5941,8.22125 12.5,6C 14.7432,5.20344 16.0766,5.37011 16.5,6.5 Z"/></g>
<g><path style="opacity:1" fill="#b8b8b8" d="M 5.5,5.5 C 6.83333,7.83333 8.16667,10.1667 9.5,12.5C 8.83126,15.7155 7.83126,16.0489 6.5,13.5C 5.5,12.1667 4.5,10.8333 3.5,9.5C 4.16667,8.16667 4.83333,6.83333 5.5,5.5 Z"/></g>
<g><path style="opacity:1" fill="#494b67" d="M 16.5,9.5 C 19.5,9.5 22.5,9.5 25.5,9.5C 25.5,11.5 25.5,13.5 25.5,15.5C 25.5,16.8333 25.5,18.1667 25.5,19.5C 24.5,19.5 23.5,19.5 22.5,19.5C 21.8333,19.5 21.1667,19.5 20.5,19.5C 20.7709,17.6203 20.1042,16.287 18.5,15.5C 17.791,14.596 16.791,14.2627 15.5,14.5C 15.2155,12.5853 15.5489,10.9187 16.5,9.5 Z"/></g>
<g><path style="opacity:1" fill="#85b39d" d="M 18.5,15.5 C 20.1042,16.287 20.7709,17.6203 20.5,19.5C 19.7605,24.1508 17.0938,25.6508 12.5,24C 10.5023,21.5608 10.169,19.0608 11.5,16.5C 11.9704,17.6935 12.9704,18.3601 14.5,18.5C 16.6544,17.9228 17.9878,16.9228 18.5,15.5 Z"/></g>
<g><path style="opacity:1" fill="#648375" d="M 13.5,14.5 C 14.1667,14.5 14.8333,14.5 15.5,14.5C 16.791,14.2627 17.791,14.596 18.5,15.5C 17.9878,16.9228 16.6544,17.9228 14.5,18.5C 12.9704,18.3601 11.9704,17.6935 11.5,16.5C 12.1667,16.5 12.5,16.1667 12.5,15.5C 13.1667,15.5 13.5,15.1667 13.5,14.5 Z"/></g>
<g><path style="opacity:1" fill="#d97b64" d="M 25.5,15.5 C 27.2503,16.6594 28.2503,18.326 28.5,20.5C 26.5,21.8333 24.5,21.8333 22.5,20.5C 22.5,20.1667 22.5,19.8333 22.5,19.5C 23.5,19.5 24.5,19.5 25.5,19.5C 25.5,18.1667 25.5,16.8333 25.5,15.5 Z"/></g>
<g><path style="opacity:1" fill="#e7b6aa" d="M 22.5,20.5 C 24.5,21.8333 26.5,21.8333 28.5,20.5C 29.0431,20.56 29.3764,20.8933 29.5,21.5C 26.8333,22.8333 24.1667,22.8333 21.5,21.5C 21.6236,20.8933 21.9569,20.56 22.5,20.5 Z"/></g>
</svg>
