<?xml version="1.0" standalone="no"?><!DOCTYPE svg PUBLIC "-//W3C//DTD SVG 1.1//EN" "http://www.w3.org/Graphics/SVG/1.1/DTD/svg11.dtd"><svg t="1724299733492" class="icon" viewBox="0 0 1024 1024" version="1.1" xmlns="http://www.w3.org/2000/svg" p-id="8970" xmlns:xlink="http://www.w3.org/1999/xlink" width="256" height="256"><path d="M1024 511.98279801C1024 229.285311 794.697487 0 512 0S0 229.285311 0 511.98279801s229.302513 512 512 511.99999998 512-229.285311 512-511.99999998z m-157.019755-1.61698701a353.346056 353.346056 0 0 1-76.290822 220.065045 91.03292599 91.03292599 0 0 0-28.125252-8.033329 82.999597 82.999597 0 0 0-28.503695 2.803924l-81.12458-116.784303a78.389464 78.389464 0 0 0 9.650316-73.968552L811.93388 410.800699a119.3474 119.3474 0 0 0 14.449671 6.416342 82.191103 82.191103 0 0 0 29.243381 4.02526501 342.95605399 342.95605399 0 0 1 11.353313 89.12350499z m-651.33611099 59.84572a83.962908 83.962908 0 0 0-30.51632901-34.524392 73.968553 73.968553 0 0 0-27.712404-9.650316c-0.39564599-5.160597-0.39564599-10.441607-0.395646-15.65381a354.928639 354.928639 0 0 1 605.957264-250.97701901 364.68216601 364.68216601 0 0 1 28.916544 32.49455701 79.283967 79.283967 0 0 0-13.65838 78.6991l-149.382072 124.095148a78.61308999 78.61308999 0 0 0-115.648972 47.787125l-297.59440899 27.69520301z m302.37656199 24.444026a86.181965 86.181965 0 0 0 5.625051 10.045962 77.92500999 77.92500999 0 0 0 86.336782 33.320252l81.107378 117.26595899a77.563768 77.563768 0 0 0-10.83725299 67.86184701 355.565112 355.565112 0 0 1-419.22967301-61.927161 343.05926599 343.05926599 0 0 1-68.67034-96.33113801 75.2415 75.2415 0 0 0 19.679075-22.08735399 67.311383 67.311383 0 0 0 8.428975-20.88321401l297.594409-27.31675899z m-412.847735-59.432872c-0.39564599-8.033329-0.39564599-16.479505-0.395646-24.90848a407.46351301 407.46351301 0 0 1 695.545222-287.858084A388.661739 388.661739 0 0 1 837.736863 265.83953799a77.976616 77.976616 0 0 1 87.936568 102.38623801 81.12458 81.12458 0 0 1-20.883215 32.528961 409.992205 409.992205 0 0 1 14.793711 109.611074 404.900417 404.900417 0 0 1-92.357479 258.20185501 76.548851 76.548851 0 0 1 6.880796 39.35814999 78.802312 78.802312 0 0 1-85.52828999 71.474265 76.634861 76.634861 0 0 1-37.34551801-13.641178 406.792635 406.792635 0 0 1-487.10872201-67.08775699 410.508265 410.508265 0 0 1-82.36312299-118.00564402 74.123371 74.123371 0 0 1-36.949872-10.83725298C68.27469401 648.136541 55.82045401 600.34941501 77.90780801 562.608252a77.40895001 77.40895001 0 0 1 27.29955699-27.333961z" fill="#009DDA" p-id="8971"></path></svg>