<?xml version="1.0" standalone="no"?><!DOCTYPE svg PUBLIC "-//W3C//DTD SVG 1.1//EN" "http://www.w3.org/Graphics/SVG/1.1/DTD/svg11.dtd"><svg t="1724299835347" class="icon" viewBox="0 0 1024 1024" version="1.1" xmlns="http://www.w3.org/2000/svg" p-id="13054" xmlns:xlink="http://www.w3.org/1999/xlink" width="256" height="256"><path d="M879.057455 402.478545a372.456727 372.456727 0 0 1-299.101091 429.149091 832 832 0 0 1-1.163637-40.354909c0-19.316364 1.070545-37.888 1.861818-55.109818a279.272727 279.272727 0 0 0 208.430546-305.664L791.272727 430.545455c32.721455 0 63.069091-10.379636 87.784728-28.06691zM247.901091 374.225455l-0.279273 1.070545A278.900364 278.900364 0 0 0 232.727273 465.454545c0 103.330909 56.180364 193.629091 139.636363 241.896728a161.792 161.792 0 0 0-22.993454 93.137454A372.363636 372.363636 0 0 1 139.636364 465.454545c0-60.276364 14.336-117.201455 39.749818-167.563636a163.467636 163.467636 0 0 0 68.561454 76.334546zM512 93.090909a370.967273 370.967273 0 0 1 248.087273 94.626909c-28.765091 13.963636-52.410182 36.770909-67.397818 64.884364A277.736727 277.736727 0 0 0 512 186.181818c-46.359273 0-90.065455 11.310545-128.558545 31.278546a162.955636 162.955636 0 0 0-59.717819-73.355637A370.688 370.688 0 0 1 512 93.090909z" p-id="13055"></path><path d="M232.727273 162.909091a116.363636 116.363636 0 1 0 0 232.727273 116.363636 116.363636 0 0 0 0-232.727273zM512 674.909091a116.363636 116.363636 0 1 0 0 232.727273 116.363636 116.363636 0 0 0 0-232.727273zM791.272727 162.909091a116.363636 116.363636 0 1 0 0 232.727273 116.363636 116.363636 0 0 0 0-232.727273z" p-id="13056"></path></svg>