<?xml version="1.0" standalone="no"?><!DOCTYPE svg PUBLIC "-//W3C//DTD SVG 1.1//EN" "http://www.w3.org/Graphics/SVG/1.1/DTD/svg11.dtd"><svg t="1724305530852" class="icon" viewBox="0 0 1024 1024" version="1.1" xmlns="http://www.w3.org/2000/svg" p-id="10086" xmlns:xlink="http://www.w3.org/1999/xlink" width="256" height="256"><path d="M949.2 330.4c-3.8-35.1-28.6-69.5-75.1-96.3C773.4 176 610.8 176 510.9 234L139.3 450v132.9l355.6 205.3c5.5 3.2 12.3 3.2 17.7 0l362.8-210.8C928.9 546.3 949 505 949.5 464c0.4-29.1 0.4-99.9 0.4-124.7 0 0-0.3-8.9-0.7-8.9z" fill="#D4E4FC" p-id="10087"></path><path d="M503.7 798.2c-4.4 0-8.8-1.1-12.7-3.4L135.4 589.6c-2.4-1.4-3.9-3.9-3.9-6.7V450c0-2.7 1.5-5.3 3.8-6.7l371.6-216c101.9-59.2 268.3-59.2 370.9 0.1 46.3 26.7 74.2 62.7 78.8 101.3 0.9 3.2 0.9 7.1 0.9 10.6 0 24.8-0.1 95.6-0.4 124.8-0.4 34.3-14.3 82.9-78 119.9L516.5 794.8c-4 2.3-8.4 3.4-12.8 3.4zM147 578.4l351.7 203.1c3.1 1.8 6.9 1.8 10 0l362.8-210.8c45.5-26.4 69.8-63.3 70.3-106.8 0.4-29.1 0.4-99.8 0.4-124.6 0 0-0.2-4.5-0.4-6.5-0.2-0.5-0.3-1-0.3-1.5-3.7-33.9-29-66.1-71.2-90.5-98.3-56.7-257.8-56.8-355.4-0.1L147 454.4v124z" fill="#0276F7" p-id="10088"></path><path d="M868 243.7c-98.2-56.7-256.7-56.7-354.1-0.1L151.5 454.2 499 654.8c4.9 2.8 10.9 2.8 15.8 0l354.5-206c97.4-56.6 96.9-148.5-1.3-205.1" fill="#FFFFFF" p-id="10089"></path><path d="M510.5 660.8c-4.2 0-8.5-1.1-12.3-3.3L208 489.9c-3.7-2.1-5-6.8-2.8-10.5 2.1-3.7 6.9-4.9 10.5-2.8L506 644.1c2.8 1.6 6.3 1.6 9.1 0l356.4-206.4c9.7-5.6 18.7-11.8 26.6-18.3 0.9-0.6 39.7-27.8 44.1-69.4 0.5-4.3 4.5-7.3 8.5-6.9 4.3 0.5 7.3 4.3 6.9 8.5-5.2 48.8-48.4 78.8-50.3 80.1-8.1 6.6-17.7 13.2-28.1 19.3L522.8 657.5c-3.8 2.2-8 3.3-12.3 3.3z" fill="#0276F7" p-id="10090"></path><path d="M440.1 659.8L211.6 527.9 74.1 606.1v95.3l228.5 131.9 137.5-78.2z" fill="#D4E4FC" p-id="10091"></path><path d="M302.6 841.1c-1.3 0-2.7-0.3-3.9-1l-228.6-132c-2.4-1.4-3.9-3.9-3.9-6.7v-95.3c0-2.8 1.5-5.3 3.9-6.7l137.5-78.2c2.4-1.4 5.3-1.3 7.7 0l228.6 132c2.4 1.4 3.9 3.9 3.9 6.7v95.3c0 2.8-1.5 5.3-3.9 6.7l-137.5 78.2c-1.1 0.6-2.5 1-3.8 1zM81.8 696.9l220.9 127.5 129.8-73.8v-86.3L211.6 536.8 81.8 610.6v86.3z" fill="#0276F7" p-id="10092"></path><path d="M440.1 659.8L211.6 527.9 74.1 606.1l228.5 132z" fill="#FFFFFF" p-id="10093"></path><path d="M302.6 745.8c-1.3 0-2.7-0.3-3.9-1l-228.6-132c-2.4-1.4-3.9-3.9-3.9-6.7 0-2.8 1.5-5.3 3.9-6.7l137.5-78.2c2.4-1.4 5.3-1.3 7.7 0l228.6 132c2.4 1.4 3.9 3.9 3.9 6.7 0 2.8-1.5 5.3-3.9 6.7l-137.5 78.2c-1.1 0.6-2.5 1-3.8 1z m-213-139.6l213 123 122-69.4-213-123-122 69.4zM712.5 313.1c-15.4-8.9-40.3-9-55.6-0.1-10.8 6.3-13.5 16.5-6.9 25.4l-10.4 6c-16.8 9.6-32.2 8.8-51.8 7.7-24.1-1.2-53.4-2.7-84.9 15.6l-17.1 9.9c-10.2-1.4-20.7 0.1-27.1 3.8-11 6.4-10.8 16.7 0.1 23 11 6.3 28.9 6.3 39.8 0 6.7-3.9 9.1-9.8 6.7-15.5l19.9-11.6c19.8-11.5 37.5-10.7 58.1-9.7l14.4 1-146 84.9-16.1-9.3-24.9 44.2 76-14.7-16.1-9.3 111.1-64.6c0.4 1.5 1.2 7.4 1.2 7.4 2.3 13.7 3.9 23.9-15.6 35.2l-6.9 4-9.3-5.4-39.4 23 37.9 21.9 39.3-22.8-9.4-5.4 5.1-3c31.1-18.1 28.5-34.5 26.4-47.8-2.1-12.6-3.5-21.4 12-30.9l45.5-26.4c8.3 2.1 17.4 2.4 25.9 1.2 6.7-0.9 13.2-2.6 18.2-5.4 13.3-7.7 14.1-19.6 4.2-28.3-1.3-1.6-2.4-2.9-4.3-4" fill="#0276F7" p-id="10094"></path><path d="M290.9 738.1h15.4v95.3h-15.4z" fill="#0276F7" p-id="10095"></path><path d="M292.8 786.1c-1.3 0-2.6-0.3-3.8-1L108.4 681.9c-2.4-1.4-3.9-3.9-3.9-6.7v-37.4c0-4.3 3.5-7.7 7.7-7.7s7.7 3.5 7.7 7.7v32.9l176.7 101c3.7 2.1 5 6.8 2.9 10.5-1.4 2.5-4 3.9-6.7 3.9z" fill="#0276F7" p-id="10096"></path><path d="M185.9 615c-2.7 0-5.2-1.4-6.7-3.8-2.1-3.7-0.9-8.4 2.8-10.6l33.3-19.3c3.6-2.1 8.4-0.9 10.6 2.8 2.1 3.7 0.9 8.4-2.8 10.6L189.8 614c-1.2 0.7-2.6 1-3.9 1z" fill="#0276F7" p-id="10097"></path><path d="M298.7 680.1c-2.7 0-5.2-1.4-6.7-3.8-2.1-3.7-0.9-8.4 2.8-10.6l33.3-19.3c3.6-2.1 8.4-0.9 10.6 2.8 2.1 3.7 0.9 8.4-2.8 10.6L302.5 679c-1.2 0.7-2.5 1.1-3.8 1.1z" fill="#0276F7" p-id="10098"></path></svg>